# xmcd
#
# Track frame offsets: 
#        150
#        14256
#        30345
#        47970
#        64446
#        83493
#        96768
#        109593
#        122868
#        139060
#        150030
#
# Disc length: 2368 seconds
#
# Revision: 2
# Processed by: cddbd v1.5.2PL0 Copyright (c) Steve Scherf et al.
# Submitted via: ExactAudioCopy v0.95b4
#
DISCID=80093e0b
DTITLE=The Fantastics! - Mighty Righteous
DYEAR=2008
DGENRE=Funk
TTITLE0=Don't Follow Leaders
TTITLE1=Nine Lives
TTITLE2=Soul Child (feat. Noel McKoy)
TTITLE3=The Doctor Is In
TTITLE4=Kinshasa Five
TTITLE5=The White Out
TTITLE6=Stay Hip (or Die Trying)
TTITLE7=I Can't Dance With You (feat. Noel McKoy)
TTITLE8=Mighty Righteous
TTITLE9=Soul Sucka
TTITLE10=Blue Sunday
EXTD=
EXTT0=
EXTT1=
EXTT2=
EXTT3=
EXTT4=
EXTT5=
EXTT6=
EXTT7=
EXTT8=
EXTT9=
EXTT10=
PLAYORDER=
